<svg width="43" height="43" viewBox="0 0 43 43" fill="none" xmlns="http://www.w3.org/2000/svg">
    <path d="M43 29.145C42.9972 28.4625 42.7619 27.8013 42.3328 27.2705C41.9038 26.7396 41.3066 26.3709 40.6399 26.225L40.45 26.1841V16.8112L40.6399 16.7704C41.3066 16.6245 41.9038 16.2557 42.3328 15.7249C42.7619 15.1941 42.9972 14.5329 43 13.8504C42.9987 13.3155 42.8539 12.7907 42.5807 12.3309C42.3075 11.871 41.9159 11.4928 41.4468 11.2358C40.9776 10.9788 40.4482 10.8523 39.9135 10.8696C39.3789 10.8869 38.8587 11.0473 38.4071 11.3341L38.2461 11.4375L31.5551 4.7539L31.6584 4.59048C31.9446 4.139 32.1045 3.61906 32.1215 3.0848C32.1385 2.55053 32.0119 2.02149 31.7549 1.55276C31.498 1.08403 31.12 0.692763 30.6605 0.419699C30.201 0.146636 29.6766 0.00176512 29.1421 0.000174825C28.5038 -0.00678983 27.8807 0.194508 27.3672 0.573554C26.8537 0.9526 26.4778 1.48873 26.2964 2.10066C26.0987 2.70763 26.104 3.36251 26.3118 3.96615C26.5195 4.56979 26.9182 5.08931 27.4477 5.44605L27.6063 5.5542L24.5179 13.0309L19.1175 7.62824L24.5324 5.37876C24.5863 5.3574 24.6354 5.32547 24.6769 5.28485C24.7183 5.24422 24.7512 5.19572 24.7736 5.1422C24.7959 5.08868 24.8074 5.03122 24.8073 4.9732C24.8071 4.91518 24.7954 4.85778 24.7727 4.80437C24.7509 4.75016 24.7184 4.70092 24.6771 4.65961C24.6358 4.61831 24.5866 4.5858 24.5324 4.56404C24.4244 4.52072 24.3039 4.52072 24.1959 4.56404L18.4446 6.96734L16.2575 4.77793L16.3632 4.61451C16.6543 4.16558 16.8192 3.64664 16.8407 3.11207C16.8622 2.5775 16.7395 2.04699 16.4855 1.57613C16.2315 1.10528 15.8555 0.711414 15.3969 0.435825C14.9383 0.160236 14.414 0.0130658 13.879 0.00973965C13.344 0.00641355 12.818 0.147054 12.356 0.41692C11.894 0.686787 11.5132 1.07594 11.2533 1.5436C10.9935 2.01126 10.8642 2.54021 10.879 3.07501C10.8939 3.6098 11.0523 4.13075 11.3378 4.58327L11.4411 4.74669L4.75007 11.4447L4.58904 11.3413C4.17893 11.08 3.71118 10.9229 3.22649 10.8835C2.74179 10.8442 2.25482 10.9239 1.80794 11.1156C1.36105 11.3074 0.967779 11.6054 0.662329 11.9838C0.356879 12.3622 0.1485 12.8094 0.0553161 13.2867C-0.037868 13.7639 -0.0130353 14.2567 0.127654 14.7222C0.268344 15.1877 0.52063 15.6118 0.86257 15.9575C1.20451 16.3033 1.62575 16.5603 2.08965 16.7061C2.55355 16.852 3.04606 16.8823 3.52434 16.7944L3.71421 16.7608L5.68499 21.5001L3.71421 26.2418L3.52434 26.2081C3.09414 26.1305 2.65213 26.1481 2.22947 26.2598C1.80681 26.3714 1.41378 26.5744 1.07808 26.8544C0.742373 27.1345 0.472158 27.4847 0.286475 27.8804C0.100792 28.2762 0.00415681 28.7078 0.00337961 29.145C0.000119311 29.6804 0.142965 30.2067 0.416541 30.667C0.690116 31.1273 1.08406 31.5043 1.55597 31.7574C2.02311 32.0194 2.55293 32.149 3.08829 32.132C3.62364 32.1151 4.14422 31.9523 4.59385 31.6612L4.75728 31.5579L11.4483 38.2463L11.345 38.4097C11.0588 38.8612 10.8989 39.3811 10.8819 39.9154C10.8649 40.4496 10.9915 40.9787 11.2485 41.4474C11.5054 41.9161 11.8833 42.3074 12.3429 42.5805C12.8024 42.8535 13.3268 42.9984 13.8613 43C14.5437 42.9956 15.2043 42.7587 15.7338 42.3283C16.2634 41.8979 16.6304 41.2998 16.7742 40.6327L16.8151 40.4429H26.1883L26.2292 40.6327C26.3843 41.3538 26.8008 41.992 27.3983 42.4244C27.9959 42.8568 28.7323 43.0528 29.4657 42.9748C30.1992 42.8968 30.8778 42.5502 31.371 42.0018C31.8643 41.4534 32.1371 40.7419 32.1371 40.0043C32.1371 39.2667 31.8643 38.5552 31.371 38.0068C30.8778 37.4584 30.1992 37.1118 29.4657 37.0337C28.7323 36.9557 27.9959 37.1518 27.3983 37.5842C26.8008 38.0166 26.3843 38.6548 26.2292 39.3758L26.1883 39.5657H16.0556L37.4458 30.6735L37.5563 30.8321C37.9199 31.3529 38.4399 31.7443 39.0409 31.9497C39.6419 32.1551 40.2927 32.1638 40.899 31.9745C41.5053 31.7851 42.0355 31.4077 42.4128 30.8968C42.7902 30.3859 42.995 29.7681 42.9976 29.133L43 29.145ZM29.1421 37.905C29.5594 37.905 29.9674 38.0288 30.3144 38.2606C30.6614 38.4925 30.9319 38.822 31.0916 39.2076C31.2513 39.5932 31.2931 40.0174 31.2117 40.4268C31.1303 40.8361 30.9293 41.2121 30.6342 41.5072C30.3391 41.8023 29.9631 42.0032 29.5537 42.0847C29.1444 42.1661 28.7201 42.1243 28.3345 41.9646C27.9489 41.8049 27.6194 41.5344 27.3875 41.1874C27.1556 40.8404 27.0319 40.4324 27.0319 40.0151C27.0325 39.4557 27.255 38.9193 27.6506 38.5237C28.0462 38.1282 28.5826 37.9056 29.1421 37.905ZM40.0126 11.7499C40.4294 11.7504 40.8366 11.8744 41.1829 12.1063C41.5293 12.3382 41.799 12.6675 41.9582 13.0527C42.1174 13.4379 42.1588 13.8616 42.0772 14.2703C41.9956 14.679 41.7946 15.0543 41.4998 15.3488C41.2049 15.6433 40.8293 15.8438 40.4205 15.925C40.0117 16.0061 39.588 15.9642 39.203 15.8046C38.818 15.645 38.489 15.3749 38.2575 15.0283C38.026 14.6818 37.9024 14.2744 37.9024 13.8576C37.9024 13.5806 37.957 13.3063 38.0631 13.0505C38.1692 12.7946 38.3246 12.5621 38.5206 12.3664C38.7166 12.1706 38.9492 12.0154 39.2052 11.9097C39.4612 11.8039 39.7356 11.7496 40.0126 11.7499ZM39.5728 16.8185V26.9339L35.1625 16.333L37.4434 15.3981L37.5539 15.5567C37.9858 16.1827 38.6397 16.6209 39.3829 16.7824L39.5728 16.8185ZM37.6212 12.0623L37.5131 12.2258C37.0934 12.8632 36.9358 13.638 37.0732 14.3887L37.1093 14.5786L34.8261 15.5207L30.3774 4.8236L37.6212 12.0623ZM27.0319 2.98748C27.0314 2.57004 27.1548 2.16183 27.3863 1.81451C27.6179 1.46719 27.9473 1.19636 28.3329 1.03629C28.7184 0.876211 29.1428 0.834081 29.5523 0.915228C29.9618 0.996375 30.338 1.19715 30.6333 1.49216C30.9287 1.78716 31.1299 2.16314 31.2115 2.57253C31.2931 2.98191 31.2515 3.40631 31.0918 3.79202C30.9322 4.17772 30.6617 4.50742 30.3147 4.73939C29.9676 4.97135 29.5595 5.09517 29.1421 5.09517C28.5828 5.09517 28.0465 4.87319 27.6508 4.47798C27.2551 4.08279 27.0325 3.54669 27.0319 2.98748ZM25.2221 13.6293L28.4162 5.89066L28.6085 5.92431C28.9627 5.99129 29.3263 5.99129 29.6804 5.92431L29.8727 5.88826L34.0161 15.8595L29.2959 17.8014L25.1909 13.7158L25.2221 13.6293ZM24.828 14.5906L28.4162 18.1763L22.3068 20.6854L24.828 14.5906ZM17.5673 7.32062L11.4772 9.8537L13.1235 5.89066L13.3157 5.92431C14.0649 6.06373 14.8391 5.91063 15.4788 5.49652L15.6398 5.39077L17.5673 7.32062ZM13.8541 0.879782C14.271 0.879782 14.6785 1.0034 15.0251 1.23499C15.3717 1.46659 15.6419 1.79577 15.8014 2.1809C15.961 2.56603 16.0027 2.98981 15.9214 3.39867C15.84 3.80752 15.6393 4.18307 15.3445 4.47784C15.0498 4.77261 14.6742 4.97334 14.2653 5.05467C13.8564 5.136 13.4326 5.09426 13.0475 4.93473C12.6624 4.7752 12.3332 4.50505 12.1016 4.15845C11.87 3.81184 11.7463 3.40434 11.7463 2.98748C11.747 2.42868 11.9692 1.89295 12.3644 1.49781C12.7595 1.10268 13.2953 0.880418 13.8541 0.879782ZM12.6164 4.8236L10.3379 10.3296L4.81016 12.6199L12.6164 4.8236ZM2.98358 15.9653C2.5667 15.9653 2.15919 15.8417 1.81257 15.6101C1.46594 15.3785 1.19579 15.0493 1.03625 14.6642C0.876722 14.279 0.834981 13.8553 0.91631 13.4464C0.997639 13.0376 1.19838 12.662 1.49316 12.3672C1.78794 12.0725 2.16351 11.8717 2.57238 11.7904C2.98124 11.7091 3.40505 11.7508 3.79019 11.9103C4.17534 12.0699 4.50452 12.34 4.73613 12.6866C4.96773 13.0332 5.09135 13.4407 5.09135 13.8576C5.09135 14.4166 4.86928 14.9527 4.474 15.348C4.07872 15.7432 3.5426 15.9653 2.98358 15.9653ZM4.52415 16.4219L4.68518 16.3114C5.15659 15.9833 5.52369 15.5265 5.74273 14.9956C5.96176 14.4646 6.02348 13.8819 5.92052 13.3169L5.88687 13.127L9.85727 11.4807L6.16086 20.3561L4.52415 16.4219ZM2.98358 31.2599C2.56602 31.2604 2.15771 31.1369 1.81033 30.9053C1.46294 30.6736 1.1921 30.3441 1.03209 29.9584C0.87208 29.5727 0.830089 29.1483 0.911434 28.7387C0.992779 28.3292 1.1938 27.953 1.48906 27.6577C1.78432 27.3625 2.16054 27.1615 2.57009 27.0801C2.97965 26.9988 3.40414 27.0408 3.78982 27.2008C4.1755 27.3608 4.50504 27.6316 4.73673 27.979C4.96841 28.3264 5.09183 28.7346 5.09135 29.1522C5.09072 29.711 4.86844 30.2467 4.4733 30.6419C4.07815 31.037 3.5424 31.2592 2.98358 31.2599ZM4.68518 26.6936L4.52415 26.5831L6.16086 22.6465L7.84323 26.6696L5.56482 27.6117L5.45426 27.4507C5.24475 27.1548 4.98434 26.8984 4.68518 26.6936ZM5.37495 30.9426L5.4831 30.7792C5.90232 30.1416 6.05983 29.367 5.92292 28.6163L5.88687 28.424L8.17009 27.4843L12.6164 38.1862L5.37495 30.9426ZM13.8541 42.1228C13.4367 42.1228 13.0286 41.999 12.6815 41.767C12.3344 41.535 12.064 41.2054 11.9043 40.8196C11.7447 40.4339 11.703 40.0095 11.7847 39.6002C11.8663 39.1908 12.0675 38.8148 12.3628 38.5198C12.6582 38.2248 13.0344 38.024 13.4439 37.9429C13.8534 37.8617 14.2778 37.9038 14.6633 38.0639C15.0488 38.224 15.3782 38.4948 15.6098 38.8421C15.8414 39.1895 15.9648 39.5977 15.9643 40.0151C15.9636 40.5743 15.741 41.1104 15.3454 41.5056C14.9497 41.9008 14.4133 42.1228 13.8541 42.1228ZM37.4962 27.5252C37.081 28.1644 36.9278 28.939 37.0684 29.6881L37.1021 29.8804L37.0132 29.9164L16.4185 38.4698L16.308 38.3112C15.98 37.8402 15.5236 37.4734 14.9932 37.2544C14.4627 37.0354 13.8804 36.9734 13.3157 37.0759L13.1235 37.1095L8.98003 27.143L11.8521 25.9582C11.9565 25.9114 12.0386 25.8257 12.0808 25.7193C12.1231 25.613 12.1222 25.4943 12.0784 25.3886C12.0346 25.2829 11.9514 25.1984 11.8463 25.1531C11.7412 25.1077 11.6226 25.1052 11.5156 25.1459L8.65558 26.3331L6.63673 21.5001L6.67519 21.4088L11.0013 11.0025L18.2403 7.99355L24.1574 13.9105L21.1532 21.166L16.4426 23.1127C16.3889 23.1341 16.34 23.1659 16.2988 23.2064C16.2576 23.2468 16.2249 23.2951 16.2025 23.3483C16.1801 23.4016 16.1686 23.4587 16.1685 23.5165C16.1685 23.5742 16.1799 23.6314 16.2022 23.6847C16.2473 23.7935 16.3338 23.8799 16.4426 23.925C16.4958 23.9476 16.553 23.9593 16.6108 23.9593C16.6686 23.9593 16.7258 23.9476 16.779 23.925L20.6821 22.3148L15.6254 34.5836C15.5974 34.6501 15.5865 34.7225 15.5936 34.7943C15.6008 34.8661 15.6257 34.9349 15.6663 34.9946C15.7099 35.0615 15.7711 35.1151 15.843 35.1497C15.915 35.1843 15.9951 35.1985 16.0746 35.1908C16.154 35.1832 16.2299 35.1539 16.2939 35.1061C16.358 35.0584 16.4077 34.9941 16.4377 34.9201L21.8382 21.8365L29.0844 18.842L29.1973 18.955L37.6092 27.3665L37.4962 27.5252ZM29.9664 18.4791L34.3526 16.6695L38.7556 27.268L29.9664 18.4791ZM40.0126 31.2599C39.595 31.2604 39.1867 31.1369 38.8393 30.9053C38.492 30.6736 38.2211 30.3441 38.0611 29.9584C37.9011 29.5727 37.8591 29.1483 37.9404 28.7387C38.0218 28.3292 38.2228 27.953 38.5181 27.6577C38.8133 27.3625 39.1895 27.1615 39.5991 27.0801C40.0087 26.9988 40.4331 27.0408 40.8188 27.2008C41.2045 27.3608 41.534 27.6316 41.7657 27.979C41.9974 28.3264 42.1208 28.7346 42.1204 29.1522C42.1191 29.7108 41.8966 30.2462 41.5016 30.6412C41.1066 31.0361 40.5712 31.2586 40.0126 31.2599Z" fill="#A097D9"/>
</svg>
