<svg width="49" height="40" viewBox="0 0 49 40" fill="none" xmlns="http://www.w3.org/2000/svg">
    <path d="M46.8997 19.8825C46.82 19.9437 46.7665 20.0328 46.75 20.1319C46.7422 20.1826 46.7445 20.2342 46.7569 20.2839C46.7694 20.3336 46.7916 20.3803 46.8223 20.4213C47.248 20.9495 47.4866 21.6039 47.5008 22.2821C47.5008 24.3924 44.959 26.3355 41.0154 27.226L39.0922 27.6625L40.8507 26.772C42.1927 26.0935 44.4427 24.6069 44.4427 22.2821C44.4427 21.5787 44.4427 20.995 44.4427 20.5111V20.2417C44.4427 18.1289 44.4427 18.1289 44.3679 17.7473C44.3516 17.6721 44.3136 17.6034 44.2585 17.5497C44.2034 17.4961 44.1338 17.4598 44.0582 17.4454C43.9827 17.431 43.9046 17.4392 43.8337 17.469C43.7628 17.4987 43.7022 17.5487 43.6594 17.6126C43.6044 17.7002 43.5848 17.8054 43.6046 17.9069C43.7892 18.785 43.5472 19.653 42.8887 20.4512C41.2224 22.5066 37.1341 23.886 32.719 23.886C29.6285 23.886 26.6501 23.215 24.5524 22.0451L22.6816 21L24.7469 21.6036C27.4972 22.3673 30.3732 22.5683 33.2029 22.1948C35.9967 21.8331 38.4412 20.9626 40.0575 19.7403C41.4295 18.7126 42.1528 17.4754 42.1528 16.1634V13.7563L42.2526 13.6814C43.6919 12.6288 44.4502 11.3691 44.4502 10.0371V6.20821C44.4502 4.66917 43.4898 3.26981 41.6739 2.1598C39.631 0.912604 36.6402 0.131858 33.4673 0.0146209C30.1348 -0.10511 26.932 0.513501 24.5374 1.7607C22.2625 2.9181 21.0078 4.51202 21.0078 6.20821V8.6178L20.908 8.69014C19.4713 9.75026 18.7105 10.9975 18.7105 12.3345V16.1634C18.7105 17.4954 19.4588 18.755 20.908 19.8077L21.0078 19.8825V20.0047C21.0078 20.3714 21.0078 20.6982 21.0078 21.0025V21.3617L20.8083 21.1921C19.4114 20.0272 16.8571 19.1741 13.804 18.8498C13.7477 18.8425 13.6905 18.8466 13.6358 18.8619C13.5811 18.8771 13.53 18.9032 13.4855 18.9386C13.4411 18.9739 13.4042 19.0178 13.3771 19.0677C13.3499 19.1176 13.3331 19.1724 13.3276 19.229C13.3212 19.2841 13.3261 19.3399 13.3419 19.3931C13.3578 19.4463 13.3843 19.4957 13.4199 19.5383C13.4547 19.5815 13.4978 19.6174 13.5466 19.644C13.5954 19.6705 13.649 19.6872 13.7042 19.6929C17.608 20.107 20.6362 21.439 21.0677 22.9356C21.0826 23.0205 21.0976 23.0903 21.1126 23.1601C21.1157 23.2042 21.1157 23.2483 21.1126 23.2923V23.3173C21.0876 25.1157 17.0093 27.0414 10.9754 27.0414C4.9414 27.0414 0.843106 25.1083 0.843106 23.2998C0.843106 22.2372 2.28986 21.1297 4.61962 20.4113C4.67287 20.3951 4.72235 20.3684 4.76517 20.3329C4.808 20.2973 4.84332 20.2536 4.86906 20.2043C4.90742 20.1303 4.92312 20.0466 4.9142 19.9637C4.90528 19.8809 4.87214 19.8025 4.81891 19.7383C4.76568 19.6742 4.69473 19.6271 4.61492 19.6031C4.53511 19.5791 4.44999 19.5791 4.37018 19.6031C1.55401 20.4762 0.0024944 21.7857 0 23.2948V35.1757C0 37.7898 4.7219 39.7629 10.9754 39.7629C16.251 39.7629 20.5513 38.3485 21.6763 36.2408L21.7661 36.0711L21.8834 36.2233C22.4124 36.8703 23.0527 37.4177 23.7741 37.8397C25.817 39.0869 28.8078 39.8701 31.9832 39.9849C35.3257 40.1071 38.496 39.486 40.9106 38.2537C43.188 37.0839 44.4402 35.5099 44.4402 33.7913V30.7232L44.5774 30.6583C45.9543 29.9748 48.2691 28.4782 48.2691 26.116V22.2896C48.2563 21.4431 47.9633 20.6246 47.436 19.9623C47.3741 19.8824 47.2838 19.8295 47.1839 19.8146C47.0839 19.7997 46.9821 19.824 46.8997 19.8825ZM25.0986 2.34189C27.179 1.34413 29.8879 0.777907 32.729 0.777907C35.5701 0.777907 38.2815 1.33416 40.3594 2.34189C42.4971 3.37707 43.6719 4.75148 43.6719 6.20821C43.6719 7.66494 42.4971 9.03935 40.3594 10.0745C38.2815 11.0848 35.5701 11.6385 32.729 11.6385C29.8879 11.6385 27.1715 11.0848 25.0986 10.0745C22.9609 9.03935 21.7861 7.66743 21.7861 6.20821C21.7861 4.74899 22.9609 3.37707 25.0986 2.34189ZM21.7861 8.52052L22.2076 8.9745C24.1782 11.0947 28.2066 12.4143 32.7215 12.4143C37.2364 12.4143 41.2798 11.0947 43.2504 8.9745L43.6719 8.52052V10.0371C43.6719 11.0349 43.0907 11.853 42.6018 12.3644C42.2871 12.7028 41.9289 12.998 41.5367 13.2424L41.4444 13.3098C39.3691 14.6692 36.1189 15.4824 32.734 15.4824C29.8929 15.4824 27.1839 14.9261 25.1036 13.9184C22.9609 12.8683 21.7861 11.4963 21.7861 10.0371V8.52052ZM20.5937 9.97974L20.9929 9.57814L21.0103 10.1444C21.0502 11.4489 21.8085 12.6762 23.2029 13.6889C26.695 16.2207 33.2229 16.989 38.4187 15.4774L40.4866 14.8762L38.6058 15.9239C36.5055 17.0938 33.5272 17.7648 30.4366 17.7648C28.0704 17.79 25.7209 17.3668 23.5122 16.5176C21.5616 15.7169 20.2096 14.6118 19.7057 13.4045C19.2168 12.2447 19.5261 11.0573 20.5937 9.97974ZM21.1201 35.1732C21.1201 36.9666 17.0492 38.9148 10.9853 38.9148C4.96136 38.9148 0.883017 36.9891 0.85059 35.1906V31.0499L1.05762 31.2345C2.83613 32.8209 6.64009 33.8062 10.9828 33.8062C15.2807 33.8062 18.9499 32.8808 20.7983 31.3293L21.0028 31.1572V33.7738C21.003 34.0733 21.0407 34.3717 21.1151 34.6618V35.1607L21.1201 35.1732ZM21.1026 25.3951C21.0408 25.6567 21.009 25.9245 21.0078 26.1933L20.9953 29.7778C20.2969 31.3218 16.5528 32.9631 10.9878 32.9631C6.19608 32.9631 0.853084 31.4266 0.853084 29.2215V25.1108L1.06012 25.2953C2.83862 26.8818 6.64258 27.8671 10.9853 27.8671C15.2807 27.8671 19.0772 26.8693 20.9006 25.2729L21.1924 25.0235L21.1026 25.3951ZM19.4887 16.1658V14.6468L19.9103 15.1007C21.9058 17.2509 25.822 18.5355 30.3868 18.5355C34.9515 18.5355 39.0099 17.216 40.9655 15.1007L41.387 14.6468V16.1634C41.387 17.6201 40.2122 18.9945 38.0745 20.0297C35.9967 21.0274 33.2852 21.5937 30.4441 21.5937C27.603 21.5937 24.8941 21.0374 22.8138 20.0297C20.6661 18.9945 19.4887 17.6201 19.4887 16.1634V16.1658ZM21.806 22.4717V22.4343C21.7886 22.1848 21.7886 21.9528 21.7911 21.7034C21.7911 21.6011 21.7911 21.4964 21.7911 21.3841V20.763L22.2076 21.2245C24.1607 23.3347 28.1942 24.6493 32.709 24.6543H32.734C37.2538 24.6543 41.2848 23.3397 43.2504 21.2245L43.6719 20.7705V22.2871C43.6719 23.7438 42.4971 25.1182 40.3594 26.1534C38.2815 27.1512 35.5701 27.7174 32.729 27.7174C28.1692 27.7099 23.9288 26.2133 22.3997 24.0681C22.3863 24.0425 22.3704 24.0183 22.3523 23.9958C22.1972 23.7726 22.0699 23.5314 21.9732 23.2774V23.2375C21.9653 22.9741 21.9087 22.7144 21.806 22.4717ZM24.9639 27.0414C25.3605 28.4682 26.6901 29.7853 28.7055 30.7356L30.5589 31.6136L28.5633 31.1921C26.6252 30.7855 24.9639 30.117 23.7542 29.2589C22.8686 28.6279 22.275 27.9294 21.9906 27.1836V27.1387V25.1931L22.0879 24.9137L22.3623 25.1906C23.091 25.894 23.9346 26.4676 24.8567 26.8868L24.954 26.9342L24.9639 27.0414ZM43.6719 33.7763C43.6719 35.2355 42.4971 36.6074 40.3594 37.6426C38.2815 38.6404 35.5701 39.2066 32.729 39.2066C29.8879 39.2066 27.179 38.6504 25.0986 37.6426C23.4673 36.8519 22.3872 35.8591 21.9756 34.7716V34.7292V32.5316L22.2251 32.781C24.8168 35.5698 30.2546 36.4852 34.4925 36.156C34.5435 36.1519 34.5931 36.1378 34.6386 36.1145C34.6841 36.0912 34.7245 36.0592 34.7577 36.0203C34.7908 35.9814 34.8159 35.9363 34.8316 35.8877C34.8473 35.8391 34.8533 35.7878 34.8492 35.7369C34.8451 35.686 34.831 35.6363 34.8078 35.5908C34.7845 35.5453 34.7525 35.5049 34.7136 35.4718C34.6747 35.4386 34.6296 35.4135 34.581 35.3978C34.5324 35.3821 34.4811 35.3761 34.4302 35.3802C29.8579 35.7369 25.3007 34.597 23.0807 32.5441C22.6043 32.1238 22.232 31.5987 21.9931 31.01V30.9676V28.7077L22.2425 28.9571C24.9639 31.888 30.8208 32.7311 35.1111 32.2772H35.1411C37.7447 32.4638 40.3602 32.1592 42.8513 31.3792L43.5397 31.1497L43.1281 31.7484C42.4472 32.7461 41.2099 33.6067 39.5487 34.2652C39.4542 34.3042 39.3788 34.3789 39.3389 34.473C39.299 34.5672 39.2977 34.6733 39.3354 34.7683C39.3731 34.8634 39.4467 34.9398 39.5403 34.981C39.6339 35.0222 39.74 35.0249 39.8355 34.9886C41.1334 34.5123 42.311 33.757 43.2853 32.776L43.7068 32.3196L43.6719 33.7763ZM47.5008 26.1185C47.5008 27.3308 46.7176 28.4682 45.2359 29.4086C43.1207 30.7531 39.8256 31.5538 36.4232 31.5538C33.6943 31.5538 31.1525 31.0374 29.0772 30.0571C27.83 29.4685 26.8497 28.7376 26.266 27.9444L25.8195 27.3358L26.5379 27.5702C29.1502 28.3756 31.8949 28.662 34.6173 28.4133H34.6547C36.9097 28.6041 39.1805 28.4511 41.3895 27.9594C43.8839 27.3807 45.852 26.3804 47.0718 25.0684L47.4933 24.6144L47.5008 26.1185Z" fill="#A097D9"/>
</svg>
