<svg width="26" height="20" viewBox="0 0 26 20" fill="none" xmlns="http://www.w3.org/2000/svg">
    <path fill-rule="evenodd" clip-rule="evenodd" d="M9.45823 0.000925589C9.45823 0.000925589 6.46298 -0.119827 3.23149 2.39711C3.23149 2.39711 0 8.32907 0 15.6421C0 15.6421 1.79116 18.9251 6.70274 19.0496C6.70274 19.0496 7.42026 18.044 8.14483 17.1591C5.38582 16.2761 4.31218 14.5101 4.31218 14.5101C4.31218 14.5101 4.55194 14.6346 4.91158 14.8874H5.01736C5.06888 14.8874 5.09376 14.9126 5.12007 14.9392L5.1249 14.944V14.9554C5.1531 14.9855 5.17779 15.012 5.23244 15.012C11.0978 17.5591 16.0005 18.1477 21.5944 14.378C21.5944 14.378 20.519 16.144 17.6454 17.027C18.2377 17.9062 19.0698 18.9138 19.0698 18.9138C23.0956 18.821 25.1046 16.6003 25.7582 15.8778C25.9023 15.7185 25.9806 15.632 26 15.6572C26 8.35548 22.7491 2.4122 22.7491 2.4122C19.8438 0.138659 17.1288 0.0367732 16.6158 0.0348865L16.2879 0.380162C19.9989 1.51222 21.7954 3.28011 21.7954 3.28011C12.7808 -1.46809 5.23401 2.48762 4.09723 3.08346L4.09723 3.08347C4.01393 3.12713 3.96505 3.15275 3.95254 3.15558C3.95254 3.15558 5.74546 1.26505 9.69976 0.255637L9.45823 0.000925589ZM16.6264 0.0254533L16.6846 0.00281178H16.6475L16.6264 0.0254533ZM17.0019 13.3761C18.2553 13.3761 19.2761 12.2441 19.2761 10.8479C19.2761 9.46112 18.2606 8.32907 17.0019 8.32907V8.33473C15.7537 8.33473 14.7312 9.46301 14.7277 10.8592C14.7277 12.2441 15.7484 13.3761 17.0019 13.3761ZM11.1348 10.8479C11.1348 12.2441 10.1141 13.3761 8.86063 13.3761C7.60718 13.3761 6.58643 12.2441 6.58643 10.8592C6.58643 9.46301 7.60718 8.33473 8.86063 8.33473L8.86769 8.32907C10.1211 8.32907 11.1348 9.46112 11.1348 10.8479Z" fill="black"/>
</svg>
