<svg width="45" height="45" viewBox="0 0 45 45" fill="none" xmlns="http://www.w3.org/2000/svg">
    <path d="M23.1399 44.2792V41.9264H23.2589C28.1899 41.7586 32.8733 39.7247 36.362 36.236C39.8508 32.7472 41.8847 28.0638 42.0525 23.1328V23.0138H44.4314C44.581 23.0138 44.7244 22.9544 44.8301 22.8487C44.9358 22.743 44.9952 22.5996 44.9952 22.45C44.9952 22.3005 44.9358 22.1571 44.8301 22.0514C44.7244 21.9456 44.581 21.8862 44.4314 21.8862H42.0525V21.7673C41.8874 16.8325 39.8552 12.1443 36.3667 8.65006C32.8782 5.15581 28.1934 3.11598 23.2589 2.94275H23.1399V0.563808C23.1399 0.414277 23.0805 0.27087 22.9748 0.165136C22.8691 0.0594011 22.7257 0 22.5761 0C22.4266 0 22.2832 0.0594011 22.1775 0.165136C22.0717 0.27087 22.0123 0.414277 22.0123 0.563808V2.94275H21.8934C16.9561 3.11451 12.2673 5.15045 8.77089 8.64064C5.27452 12.1308 3.2303 16.8161 3.0498 21.753V21.872H0.563808C0.489768 21.872 0.416453 21.8865 0.348048 21.9149C0.279644 21.9432 0.21749 21.9847 0.165136 22.0371C0.112781 22.0894 0.0712514 22.1516 0.0429174 22.22C0.0145834 22.2884 0 22.3617 0 22.4358C0 22.5098 0.0145834 22.5831 0.0429174 22.6515C0.0712514 22.7199 0.112781 22.7821 0.165136 22.8344C0.21749 22.8868 0.279644 22.9283 0.348048 22.9567C0.416453 22.985 0.489768 22.9996 0.563808 22.9996H3.04504V23.1185C3.223 28.0547 5.26691 32.7397 8.76425 36.2277C12.2616 39.7158 16.9519 41.7473 21.8886 41.9121H22.0076V44.2649C22.0076 44.414 22.0666 44.5571 22.1719 44.6627C22.2771 44.7684 22.4199 44.8281 22.569 44.8287V44.9524V44.8287C22.7171 44.83 22.8599 44.7732 22.9666 44.6705C23.0734 44.5677 23.1356 44.4273 23.1399 44.2792ZM22.0123 37.0329V40.7988H21.8839C12.311 40.4419 4.53188 32.6819 4.17741 23.1304V23.0043H7.81005C7.95959 23.0043 8.10299 22.9449 8.20873 22.8392C8.31446 22.7335 8.37386 22.5901 8.37386 22.4405C8.37386 22.291 8.31446 22.1476 8.20873 22.0419C8.10299 21.9361 7.95959 21.8767 7.81005 21.8767H4.17266V21.7483C4.36533 17.1145 6.29374 12.7227 9.57489 9.44509C12.856 6.16746 17.2499 4.24378 21.8839 4.05609H22.0123V7.78389C22.0123 7.93342 22.0717 8.07682 22.1775 8.18256C22.2832 8.28829 22.4266 8.34769 22.5761 8.34769C22.7257 8.34769 22.8691 8.28829 22.9748 8.18256C23.0805 8.07682 23.1399 7.93342 23.1399 7.78389V4.05133H23.266C32.8056 4.40817 40.5585 12.1754 40.9154 21.7387V21.8672H37.1709C37.0214 21.8672 36.878 21.9266 36.7722 22.0323C36.6665 22.1381 36.6071 22.2815 36.6071 22.431C36.6071 22.5805 36.6665 22.7239 36.7722 22.8297C36.878 22.9354 37.0214 22.9948 37.1709 22.9948H40.9201V23.1209C40.7395 27.7459 38.8226 32.1329 35.5516 35.4075C32.2805 38.6821 27.8955 40.6037 23.2708 40.7893H23.1447V37.0329C23.1447 36.8834 23.0853 36.74 22.9796 36.6343C22.8738 36.5285 22.7304 36.4691 22.5809 36.4691C22.4313 36.4691 22.2879 36.5285 22.1822 36.6343C22.0765 36.74 22.0171 36.8834 22.0171 37.0329H22.0123Z" fill="#A097D9"/>
    <path d="M34.5708 19.5503C33.8782 16.677 32.1815 14.1458 29.7867 12.4135L30.1174 12.3136C30.1746 12.2963 30.2278 12.2679 30.274 12.2299C30.3201 12.1919 30.3583 12.1452 30.3862 12.0924C30.4155 12.0404 30.4338 11.9829 30.4399 11.9236C30.446 11.8643 30.4399 11.8043 30.4219 11.7474C30.4046 11.6902 30.3762 11.637 30.3382 11.5908C30.3002 11.5447 30.2535 11.5066 30.2007 11.4786C30.1484 11.45 30.091 11.4321 30.0318 11.426C29.9726 11.4198 29.9127 11.4256 29.8557 11.4429L29.1991 11.638C28.4855 11.8497 28.4426 11.8616 28.3451 12.0162C28.2476 12.1709 28.2571 12.197 28.3855 12.9868C28.4141 13.1653 28.4498 13.3865 28.4926 13.6601C28.5125 13.7789 28.5782 13.8851 28.6757 13.9558C28.7731 14.0266 28.8945 14.0562 29.0136 14.0383C29.1321 14.0179 29.2379 13.952 29.3086 13.8547C29.3792 13.7574 29.4091 13.6363 29.3918 13.5173L29.3443 13.2152C31.535 14.8386 33.079 17.1863 33.7017 19.8408C34.3245 22.4954 33.9855 25.2849 32.7451 27.7131C31.5048 30.1413 29.4434 32.0508 26.9276 33.1023C24.4119 34.1537 21.6047 34.2787 19.0054 33.4552C18.9319 33.4284 18.8525 33.4222 18.7758 33.4373C18.699 33.4524 18.6279 33.4882 18.57 33.5409C18.5076 33.5984 18.4611 33.6712 18.4353 33.7521C18.4094 33.833 18.405 33.9193 18.4226 34.0024C18.4396 34.0785 18.4772 34.1485 18.5313 34.2048C18.5855 34.261 18.654 34.3012 18.7294 34.3212C19.9514 34.7121 21.2266 34.9112 22.5096 34.9111C23.4827 34.9123 24.4525 34.7956 25.3976 34.5638C27.4834 34.0483 29.4029 33.0083 30.9738 31.5426C32.5961 30.0517 33.7865 28.1509 34.4195 26.0405C35.0525 23.9301 35.1047 21.688 34.5708 19.5503Z" fill="#A097D9"/>
    <path d="M16.4885 31.2831C16.4811 31.2225 16.4616 31.164 16.4311 31.1111C16.4006 31.0582 16.3597 31.012 16.311 30.9752C16.2622 30.9385 16.2065 30.9119 16.1473 30.8972C16.088 30.8824 16.0264 30.8798 15.9661 30.8894C15.9058 30.899 15.848 30.9206 15.7963 30.953C15.7445 30.9855 15.6998 31.028 15.6649 31.0781C15.6299 31.1281 15.6054 31.1848 15.5929 31.2445C15.5803 31.3043 15.5799 31.366 15.5917 31.4259L15.6393 31.728C13.4485 30.1047 11.9045 27.757 11.2818 25.1024C10.6591 22.4478 10.998 19.6584 12.2384 17.2302C13.4787 14.802 15.5401 12.8924 18.0559 11.841C20.5717 10.7896 23.3788 10.6645 25.9781 11.488C26.0929 11.5246 26.2176 11.5141 26.3247 11.4587C26.4318 11.4034 26.5125 11.3078 26.5491 11.193C26.5857 11.0782 26.5751 10.9535 26.5198 10.8464C26.4645 10.7394 26.3689 10.6586 26.2541 10.622C24.0978 9.93177 21.793 9.84945 19.5931 10.3842C17.5081 10.9 15.5895 11.94 14.0192 13.4054C12.3975 14.8958 11.2074 16.7956 10.574 18.9051C9.9406 21.0145 9.88736 23.2557 10.4199 25.3929C11.1142 28.2654 12.8105 30.7961 15.2039 32.5297L14.8732 32.6296C14.7892 32.655 14.7144 32.7042 14.6577 32.7712C14.6011 32.8382 14.5651 32.9202 14.554 33.0072C14.5429 33.0943 14.5573 33.1827 14.5954 33.2617C14.6334 33.3408 14.6936 33.4071 14.7686 33.4527C14.84 33.4969 14.9225 33.52 15.0065 33.5193C15.0507 33.5188 15.0947 33.5124 15.1373 33.5003L15.782 33.3076C16.4957 33.0983 16.5575 33.0697 16.6527 32.9151C16.7478 32.7605 16.7336 32.7367 16.6122 31.9825C16.5718 31.7994 16.5337 31.571 16.4885 31.2831Z" fill="#A097D9"/>
    <path d="M28.3092 22.8497C28.4058 22.7001 28.4572 22.5258 28.4572 22.3478C28.4572 22.1697 28.4058 21.9954 28.3092 21.8458L26.3489 18.846C26.282 18.7452 26.178 18.6749 26.0595 18.6504C25.941 18.6259 25.8176 18.6491 25.7162 18.7151C25.6648 18.7475 25.6204 18.7899 25.5856 18.8397C25.5509 18.8896 25.5265 18.9459 25.5139 19.0053C25.5012 19.0638 25.5003 19.1243 25.5113 19.1831C25.5223 19.242 25.5451 19.298 25.5782 19.3479L27.5218 22.3216L22.4903 25.4451L17.4589 22.3192L22.4903 14.6281L24.3007 17.3805C24.3666 17.4815 24.4699 17.5521 24.588 17.5769C24.706 17.6016 24.829 17.5785 24.9299 17.5126C25.0309 17.4466 25.1015 17.3433 25.1262 17.2253C25.151 17.1073 25.1279 16.9843 25.0619 16.8833L23.273 14.1476C23.1889 14.0185 23.074 13.9124 22.9385 13.8389C22.8031 13.7655 22.6515 13.7271 22.4974 13.7271C22.3434 13.7271 22.1918 13.7655 22.0563 13.8389C21.9209 13.9124 21.806 14.0185 21.7219 14.1476L16.6881 21.8458C16.5921 21.9956 16.541 22.1698 16.541 22.3478C16.541 22.5257 16.5921 22.6999 16.6881 22.8497L21.7076 30.7811C21.7914 30.9127 21.9071 31.0211 22.0439 31.0962C22.1807 31.1713 22.3343 31.2107 22.4903 31.2107C22.6464 31.2107 22.7999 31.1713 22.9367 31.0962C23.0735 31.0211 23.1892 30.9127 23.273 30.7811L28.3092 22.8497ZM22.4903 30.3124L18.5127 24.0463L22.25 26.3801C22.3218 26.4235 22.4041 26.4465 22.4879 26.4465C22.5718 26.4465 22.6541 26.4235 22.7258 26.3801L26.4655 24.0582L22.4903 30.3124Z" fill="#A097D9"/>
</svg>
