<svg width="45" height="44" viewBox="0 0 45 44" fill="none" xmlns="http://www.w3.org/2000/svg">
    <path d="M21.9422 24.9382C20.9855 24.9382 20.0504 24.6545 19.255 24.123C18.4596 23.5915 17.8397 22.836 17.4737 21.9521C17.1077 21.0682 17.0121 20.0956 17.1989 19.1574C17.3857 18.2192 17.8465 17.3574 18.5232 16.6811C19.1998 16.0048 20.0618 15.5444 21.0001 15.358C21.9384 15.1717 22.911 15.2678 23.7947 15.6342C24.6784 16.0006 25.4335 16.6209 25.9647 17.4166C26.4958 18.2122 26.7791 19.1475 26.7786 20.1042C26.7774 21.3863 26.2673 22.6155 25.3605 23.5218C24.4537 24.4282 23.2243 24.9376 21.9422 24.9382ZM21.9422 16.2284C21.1757 16.2289 20.4266 16.4566 19.7896 16.8827C19.1525 17.3089 18.6561 17.9144 18.3631 18.6226C18.0701 19.3309 17.9937 20.1101 18.1435 20.8618C18.2934 21.6134 18.6627 22.3038 19.2048 22.8456C19.7469 23.3874 20.4375 23.7563 21.1893 23.9057C21.9411 24.055 22.7202 23.9781 23.4283 23.6847C24.1364 23.3913 24.7416 22.8945 25.1673 22.2572C25.5931 21.6199 25.8204 20.8706 25.8204 20.1042C25.8191 19.0762 25.41 18.0908 24.6829 17.3641C23.9558 16.6375 22.9701 16.229 21.9422 16.2284Z" fill="#A097D9"/>
    <path d="M21.942 20.9346C21.8162 20.9346 21.6956 20.8846 21.6066 20.7956C21.5176 20.7067 21.4677 20.586 21.4677 20.4602V17.9317C21.4677 17.8059 21.5176 17.6852 21.6066 17.5962C21.6956 17.5073 21.8162 17.4573 21.942 17.4573C22.0679 17.4573 22.1885 17.5073 22.2775 17.5962C22.3665 17.6852 22.4164 17.8059 22.4164 17.9317V20.4554C22.4171 20.5181 22.4053 20.5803 22.3817 20.6384C22.3581 20.6965 22.3233 20.7494 22.2792 20.794C22.2351 20.8385 22.1826 20.8739 22.1247 20.898C22.0668 20.9222 22.0047 20.9346 21.942 20.9346Z" fill="#A097D9"/>
    <path d="M21.9421 22.6879C22.2329 22.6879 22.4687 22.4522 22.4687 22.1613C22.4687 21.8705 22.2329 21.6348 21.9421 21.6348C21.6513 21.6348 21.4155 21.8705 21.4155 22.1613C21.4155 22.4522 21.6513 22.6879 21.9421 22.6879Z" fill="#A097D9"/>
    <path d="M40.3772 19.9077C36.1788 14.9266 29.2859 11.9592 21.9423 11.9592C14.5987 11.9592 7.70818 14.9313 3.50981 19.9077C3.05368 20.4472 2.80342 21.1308 2.80342 21.8373C2.80342 22.5437 3.05368 23.2274 3.50981 23.7669C7.70818 28.748 14.5987 31.7177 21.9423 31.7177C29.2859 31.7177 36.1741 28.7456 40.3772 23.7692C40.8331 23.2292 41.0831 22.5452 41.0831 21.8385C41.0831 21.1317 40.8331 20.4478 40.3772 19.9077ZM16.864 13.7026C20.2171 13.0321 23.6699 13.0321 27.0231 13.7026C28.2901 14.7485 29.2035 16.1601 29.6383 17.7445C30.0731 19.3289 30.0082 21.0089 29.4525 22.5551C28.8968 24.1012 27.8774 25.4382 26.5334 26.3833C25.1894 27.3283 23.5865 27.8355 21.9435 27.8355C20.3005 27.8355 18.6976 27.3283 17.3536 26.3833C16.0097 25.4382 14.9902 24.1012 14.4345 22.5551C13.8788 21.0089 13.8139 19.3289 14.2487 17.7445C14.6836 16.1601 15.5969 14.7485 16.864 13.7026ZM39.4284 22.9675C35.4625 27.6711 28.9254 30.4771 21.9423 30.4771C14.9593 30.4771 8.42214 27.6711 4.45859 22.9675C4.19096 22.6517 4.04407 22.2512 4.04407 21.8373C4.04407 21.4233 4.19096 21.0228 4.45859 20.707C6.98236 17.716 10.5474 15.4887 14.6082 14.2695C13.5675 15.6363 12.9293 17.2667 12.7656 18.9769C12.602 20.687 12.9194 22.4088 13.6821 23.9482C14.4447 25.4876 15.6223 26.7832 17.0821 27.6891C18.5418 28.5949 20.2256 29.0749 21.9435 29.0749C23.6615 29.0749 25.3452 28.5949 26.805 27.6891C28.2647 26.7832 29.4423 25.4876 30.205 23.9482C30.9676 22.4088 31.2851 20.687 31.1214 18.9769C30.9578 17.2667 30.3196 15.6363 29.2788 14.2695C33.3396 15.4911 36.9047 17.716 39.4284 20.707C39.6961 21.0228 39.843 21.4233 39.843 21.8373C39.843 22.2512 39.6961 22.6517 39.4284 22.9675Z" fill="#A097D9"/>
    <path d="M22.0109 43.9998C19.2686 44.0038 16.5498 43.4929 13.996 42.4936C13.8944 42.454 13.8127 42.3756 13.7689 42.2757C13.7251 42.1759 13.7228 42.0627 13.7624 41.9611C13.802 41.8595 13.8804 41.7778 13.9803 41.734C14.0801 41.6902 14.1933 41.6878 14.2949 41.7275C17.5057 42.9819 20.9741 43.4338 24.3991 43.044C27.8241 42.6543 31.1022 41.4346 33.9491 39.4908C36.7959 37.547 39.1254 34.9379 40.7353 31.8899C42.3453 28.8418 43.1871 25.447 43.1878 21.9998C43.191 19.1322 42.6103 16.2939 41.4812 13.658C40.352 11.022 38.6979 8.64352 36.6198 6.66747C36.5543 6.59071 36.5194 6.49252 36.5217 6.39164C36.524 6.29076 36.5634 6.19428 36.6324 6.12062C36.7014 6.04696 36.795 6.00129 36.8956 5.99234C36.9961 5.98339 37.0963 6.01179 37.1772 6.0721C40.3605 9.10512 42.562 13.0224 43.4976 17.3186C44.4331 21.6148 44.0599 26.0928 42.4261 30.1748C40.7923 34.2569 37.9727 37.7557 34.3313 40.2199C30.6899 42.6842 26.3936 44.0007 21.9967 43.9998H22.0109Z" fill="#A097D9"/>
    <path d="M8.63776 39.3675C8.54574 39.3674 8.45641 39.3365 8.38396 39.2797C5.81936 37.2522 3.7345 34.683 2.27853 31.7559C0.619905 28.4005 -0.155437 24.6776 0.0258216 20.9391C0.20708 17.2006 1.33895 13.5701 3.31439 10.391C5.28983 7.21186 8.04354 4.58916 11.3151 2.77091C14.5867 0.952665 18.268 -0.00102663 22.0109 2.48824e-05C25.2065 -0.00479798 28.3643 0.691534 31.2615 2.03991C31.3532 2.09026 31.4224 2.17354 31.455 2.27291C31.4876 2.37228 31.4813 2.48033 31.4373 2.57522C31.3933 2.67011 31.315 2.74477 31.2181 2.7841C31.1211 2.82342 31.0129 2.82449 30.9152 2.78708C27.6878 1.28983 24.1351 0.629679 20.5852 0.867554C17.0353 1.10543 13.6025 2.23367 10.6037 4.14814C7.60479 6.06261 5.13648 8.70163 3.42652 11.8216C1.71657 14.9417 0.820072 18.4421 0.819769 22C0.811255 25.2033 1.53316 28.3664 2.93061 31.2488C4.32805 34.1313 6.36426 36.6572 8.88444 38.6346C8.9517 38.6874 9.00074 38.76 9.02473 38.8421C9.04871 38.9242 9.04643 39.0118 9.0182 39.0926C8.98998 39.1733 8.93722 39.2432 8.8673 39.2925C8.79739 39.3418 8.71382 39.368 8.62827 39.3675H8.63776Z" fill="#A097D9"/>
    <path d="M32.1415 4.64922C31.867 4.64922 31.5986 4.56778 31.3703 4.4152C31.1421 4.26263 30.9643 4.04577 30.8593 3.79208C30.7544 3.5384 30.727 3.25927 30.7807 2.99004C30.8345 2.72081 30.9669 2.47357 31.1612 2.2796C31.3555 2.08564 31.6029 1.95367 31.8723 1.9004C32.1416 1.84713 32.4207 1.87494 32.6742 1.98033C32.9277 2.08572 33.1442 2.26394 33.2964 2.49244C33.4486 2.72094 33.5296 2.98945 33.5291 3.26399C33.5285 3.6316 33.382 3.98393 33.1218 4.24364C32.8617 4.50335 32.5091 4.64922 32.1415 4.64922ZM32.1415 2.55003C32.0008 2.55003 31.8632 2.59177 31.7462 2.66996C31.6291 2.74815 31.5379 2.85928 31.4841 2.98931C31.4302 3.11934 31.4161 3.26241 31.4436 3.40045C31.471 3.53848 31.5388 3.66527 31.6383 3.76479C31.7379 3.86431 31.8646 3.93208 32.0027 3.95954C32.1407 3.987 32.2838 3.9729 32.4138 3.91905C32.5438 3.86519 32.655 3.77398 32.7332 3.65696C32.8114 3.53994 32.8531 3.40236 32.8531 3.26162C32.8534 3.16798 32.8352 3.07519 32.7996 2.98858C32.764 2.90197 32.7116 2.82325 32.6455 2.75692C32.5794 2.69059 32.5009 2.63796 32.4144 2.60205C32.3279 2.56615 32.2352 2.54766 32.1415 2.54766V2.55003Z" fill="#A097D9"/>
    <path d="M12.9976 42.8213C12.723 42.8218 12.4545 42.7408 12.226 42.5886C11.9975 42.4365 11.8193 42.2199 11.7139 41.9664C11.6085 41.7129 11.5807 41.4338 11.634 41.1645C11.6873 40.8952 11.8192 40.6477 12.0132 40.4534C12.2071 40.2591 12.4544 40.1267 12.7236 40.073C12.9929 40.0192 13.272 40.0466 13.5257 40.1515C13.7794 40.2565 13.9962 40.4343 14.1488 40.6626C14.3014 40.8908 14.3828 41.1592 14.3828 41.4337C14.3828 41.8013 14.2369 42.1539 13.9772 42.4141C13.7175 42.6742 13.3652 42.8207 12.9976 42.8213ZM12.9976 40.7221C12.8568 40.7221 12.7193 40.7639 12.6022 40.8421C12.4852 40.9203 12.394 41.0314 12.3402 41.1614C12.2863 41.2914 12.2722 41.4345 12.2997 41.5726C12.3271 41.7106 12.3949 41.8374 12.4944 41.9369C12.5939 42.0364 12.7207 42.1042 12.8588 42.1317C12.9968 42.1591 13.1399 42.145 13.2699 42.0912C13.3999 42.0373 13.511 41.9461 13.5892 41.8291C13.6674 41.7121 13.7092 41.5745 13.7092 41.4337C13.7092 41.245 13.6342 41.064 13.5007 40.9306C13.3673 40.7971 13.1863 40.7221 12.9976 40.7221Z" fill="#A097D9"/>
</svg>
