<svg width="29" height="40" viewBox="0 0 29 40" fill="none" xmlns="http://www.w3.org/2000/svg">
    <path d="M25.0447 8.10055e-06H12.4397C11.3911 -0.00211927 10.3827 0.414845 9.64334 1.16368L1.15882 9.68379C0.413112 10.4284 -0.00211042 11.4389 8.06671e-06 12.494V35.7398C0.00212655 37.931 1.77106 39.7095 3.95522 39.7116H10.9843C11.228 39.7116 11.4229 39.5137 11.4229 39.2712C11.4229 39.0266 11.2258 38.8309 10.9843 38.8309H3.95522C2.25831 38.8287 0.881297 37.4481 0.879178 35.7419V22.0629H7.7706C8.58622 22.0608 9.37006 22.3863 9.94628 22.9671L11.4017 24.4286C12.141 25.1753 13.1494 25.5944 14.1981 25.5922H19.4223C19.6172 26.6091 20.4984 27.3473 21.5301 27.358C22.744 27.358 23.727 26.3709 23.727 25.1519C23.727 23.9329 22.744 22.9458 21.5301 22.9458C20.4984 22.9564 19.6172 23.6946 19.4223 24.7115H14.1981C13.3825 24.7136 12.5986 24.3882 12.0224 23.8074L10.567 22.3459C9.82765 21.5992 8.81925 21.1801 7.7706 21.1822H0.879178V15.0022H19.4223C19.6172 16.0191 20.4984 16.7573 21.5301 16.7679C22.744 16.7679 23.727 15.7808 23.727 14.5618C23.727 13.3429 22.744 12.3558 21.5301 12.3558C20.4984 12.3664 19.6172 13.1046 19.4223 14.1215H0.879178V12.4962C0.883415 12.1473 0.944851 11.8026 1.06349 11.475H5.71356C5.95718 11.475 6.15208 11.2772 6.15208 11.0347C6.15208 10.7921 5.95506 10.5943 5.71356 10.5943H1.55074C1.62277 10.4964 1.69903 10.4028 1.78165 10.3135L10.2662 1.787C10.3552 1.70403 10.4484 1.62744 10.5458 1.55511V7.49898C10.5437 9.203 9.1688 10.5858 7.46978 10.5879C7.22615 10.5879 7.03125 10.7858 7.03125 11.0283C7.03125 11.2708 7.22827 11.4687 7.46978 11.4687C9.4781 11.4623 11.1602 9.94333 11.3805 7.93935H18.0156C19.2295 7.93935 20.2125 6.95225 20.2125 5.73327C20.2125 4.51428 19.2295 3.52718 18.0156 3.52718H11.425V1.06795C11.7512 0.948814 12.0944 0.887121 12.4419 0.882866H25.0468C26.7437 0.884993 28.1207 2.26566 28.1229 3.9718V14.5618C28.1229 14.8065 28.3199 15.0022 28.5614 15.0022C28.805 15.0022 28.9999 14.8044 28.9999 14.5618V3.9718C28.9978 1.77849 27.2289 0.00213547 25.0447 8.10055e-06ZM21.5301 23.8265C22.2589 23.8265 22.8478 24.4201 22.8478 25.1498C22.8478 25.8794 22.2568 26.473 21.5301 26.473C20.8014 26.473 20.2125 25.8794 20.2125 25.1498C20.2125 24.4201 20.8014 23.8265 21.5301 23.8265ZM21.5301 13.2365C22.2589 13.2365 22.8478 13.83 22.8478 14.5597C22.8478 15.2915 22.2568 15.8829 21.5301 15.8829C20.8014 15.8829 20.2125 15.2894 20.2125 14.5597C20.2125 13.83 20.8014 13.2386 21.5301 13.2365ZM18.0156 4.41217C18.7443 4.41217 19.3333 5.00571 19.3333 5.73539C19.3333 6.46508 18.7422 7.05862 18.0156 7.05862H11.425V4.41217H18.0156Z" fill="#A097D9"/>
    <path d="M28.5593 15.8848C28.3157 15.8848 28.1208 16.0826 28.1208 16.3251V35.7395C28.1187 37.4435 26.7438 38.8263 25.0448 38.8284H12.7427C12.4991 38.8284 12.3042 39.0263 12.3042 39.2688C12.3042 39.5134 12.5012 39.7092 12.7427 39.7092H25.0448C27.2268 39.707 28.9978 37.9307 29 35.7374V16.3251C29 16.0805 28.8029 15.8848 28.5593 15.8848Z" fill="#A097D9"/>
    <path d="M18.7401 33.7081H7.59901C7.35327 33.7081 7.15625 33.5081 7.15625 33.2635C7.15625 33.0167 7.35539 32.8188 7.59901 32.8188H18.7401C18.9859 32.8188 19.1829 33.0188 19.1829 33.2635C19.1829 33.5081 18.9837 33.7081 18.7401 33.7081Z" fill="#A097D9"/>
</svg>
