<svg fill="none" height="42" viewBox="0 0 29 42" width="29" xmlns="http://www.w3.org/2000/svg"><g fill="#31cb9e"><path d="m12.3406 20.6688 15.4253 8.83c.124.0744.2655.1146.4102.1162.1446.0017.287-.0351.4127-.1067s.23-.1753.3022-.3005c.0723-.1252.1099-.2674.1089-.412v-16.2664c.0018-.1448-.0353-.2874-.1075-.4129-.0723-.1256-.1769-.2294-.3031-.3006-.1261-.0712-.2691-.1072-.414-.1043-.1448.0029-.2862.0447-.4094.121z"/><path d="m27.439 7.92328-10.5448-7.75092c-.1096-.0837241-.2382-.1391545-.3743-.1613851s-.2757-.01057549-.4062.0339335c-.1306.044509-.2482.1204986-.3423.2212436-.0942.100744-.1621.223136-.1976.356341l-3.8502 17.265407 15.6228-8.63272c.1189-.06111.22-.15182.2935-.26337.0736-.11155.1171-.24018.1264-.37345s-.0159-.26668-.0733-.38736c-.0573-.12068-.1448-.22454-.254-.30155"/><path d="m16.8819 41.1592 10.5571-7.7509c.1092-.0781.1968-.1827.2544-.3039.0576-.1213.0832-.2552.0746-.3892-.0087-.1339-.0513-.2635-.124-.3763-.0727-.1129-.173-.2054-.2914-.2687l-15.629-8.6327 3.8502 17.2654c.0319.1341.0967.2582.1885.3612.0918.1029.2078.1814.3375.2285s.269.0612.4055.0412c.1365-.0201.2659-.0737.3766-.1561"/><path d="m8.33002 20.3545 4.01058-18.75146c.0306-.15533.0142-.31627-.0472-.46221-.0615-.145939-.1651-.270239-.2976-.356989-.1325-.086749-.2879-.132003-.4464-.129967-.1584.002036-.3126.051269-.4428.141396l-10.273285 7.87424c-.26014.19945-.470662.45625-.615148.75039-.1444857.29414-.21903022.6177-.21781957.9453v19.9785c-.0060178.3329.06621407.6625.21088557.9624.144672.2998.357745.5616.622082.7642l10.223885 7.8434c.1303.0901.2845.1393.4429.1414.1584.002.3138-.0433.4463-.13.1326-.0868.2362-.211.2976-.357.0614-.1459.0779-.3069.0472-.4622z"/></g></svg>