<svg fill="none" height="24" viewBox="0 0 24 24" width="24" xmlns="http://www.w3.org/2000/svg"><path d="m5.15588 24h-5.15588v-16.03133h5.15588zm-2.3996-18.46877h-.03695c-1.65008 0-2.71852699-1.22836-2.71852699-2.76602 0-1.56577 1.09656699-2.76521 2.78359699-2.76521s2.71933 1.1906 2.75629 2.76521c-.00081 1.53766-1.06926 2.76602-2.78441 2.76602zm21.24292 18.46877h-5.1559v-8.7656c0-2.1-.7503-3.5349-2.6157-3.5349-1.4251 0-2.2686.9641-2.6438 1.9032-.1406.3374-.1783.797-.1783 1.2661v9.1312h-5.15593v-16.03133h5.15593v2.23093c.7503-1.06845 1.9224-2.60611 4.6497-2.60611 3.3845 0 5.9448 2.23097 5.9448 7.04081z" fill="#000"/></svg>