<svg width="30" height="49" viewBox="0 0 30 49" fill="none" xmlns="http://www.w3.org/2000/svg">
    <path d="M27.7841 21.6609H6.91302L4.9469 16.2892C4.58018 15.2812 4.41558 14.2109 4.4625 13.1394C4.50942 12.0678 4.76694 11.016 5.22036 10.0439C5.67378 9.07189 6.31421 8.19867 7.1051 7.47414C7.89598 6.74961 8.82183 6.18795 9.82978 5.82123C10.8377 5.45451 11.908 5.28991 12.9796 5.33683C14.0512 5.38375 15.103 5.64127 16.075 6.09469C17.0471 6.54811 17.9203 7.18854 18.6448 7.97943C19.3693 8.77031 19.931 9.69616 20.2977 10.7041L21.4023 13.7424C21.5308 14.0939 21.7934 14.3801 22.1327 14.5381C22.472 14.6961 22.8601 14.7129 23.2118 14.585L24.7107 14.0449C25.0627 13.917 25.3495 13.6545 25.508 13.3152C25.6665 12.9759 25.6838 12.5875 25.556 12.2354L24.5675 9.53471C24.0522 7.93807 23.223 6.46055 22.1285 5.18899C21.034 3.91743 19.6963 2.87749 18.1942 2.1303C16.692 1.3831 15.0556 0.943732 13.3812 0.838008C11.7068 0.732283 10.0282 0.96234 8.44398 1.51465C6.85977 2.06697 5.40195 2.9304 4.1562 4.05419C2.91046 5.17798 1.90193 6.53946 1.1899 8.0586C0.477864 9.57775 0.0766919 11.2239 0.00996147 12.9003C-0.056769 14.5767 0.212289 16.2495 0.80132 17.8205L2.20299 21.6717L2.03014 21.6906C1.48385 21.7425 0.976728 21.9968 0.608422 22.4036C0.240116 22.8104 0.037261 23.3402 0.0397212 23.889V33.4387C0.0130799 35.4227 0.380854 37.3923 1.12169 39.233C1.86252 41.0738 2.96166 42.749 4.35527 44.1615C5.74889 45.5739 7.40922 46.6955 9.23985 47.4609C11.0705 48.2264 13.035 48.6206 15.0192 48.6206C17.0034 48.6206 18.9679 48.2264 20.7985 47.4609C22.6292 46.6955 24.2895 45.5739 25.6831 44.1615C27.0767 42.749 28.1758 41.0738 28.9167 39.233C29.6575 37.3923 30.0253 35.4227 29.9987 33.4387V23.8701C29.9987 23.5799 29.9415 23.2927 29.8305 23.0246C29.7195 22.7566 29.5567 22.5131 29.3516 22.3079C29.1465 22.1028 28.9029 21.9401 28.6349 21.829C28.3669 21.718 28.0796 21.6609 27.7895 21.6609H27.7841ZM1.94912 17.3803C1.43223 15.9649 1.20202 14.4609 1.27191 12.9557C1.34179 11.4505 1.71036 9.97432 2.35616 8.61295C3.00197 7.25158 3.91212 6.03226 5.03362 5.02597C6.15513 4.01968 7.46559 3.24651 8.88873 2.75147C10.3119 2.25643 11.8193 2.04941 13.3232 2.14246C14.8271 2.23551 16.2975 2.62677 17.6487 3.29346C19 3.96015 20.2052 4.88896 21.1941 6.02583C22.183 7.1627 22.9359 8.48491 23.4089 9.9155L24.4028 12.6432C24.4215 12.6891 24.4215 12.7405 24.4028 12.7864C24.3808 12.83 24.3432 12.8637 24.2975 12.8809L22.7986 13.421C22.7527 13.4377 22.7021 13.4358 22.6577 13.4156C22.6132 13.3954 22.5785 13.3585 22.5609 13.313L21.4536 10.272C20.6002 7.93051 18.8515 6.02394 16.5924 4.97173C14.3332 3.91951 11.7486 3.80784 9.40712 4.66128C7.06563 5.51472 5.15906 7.26336 4.10685 9.52251C3.05464 11.7817 2.94296 14.3663 3.7964 16.7078L5.59777 21.6609H3.50473L1.94912 17.3803ZM28.7671 33.4387C28.7927 35.261 28.4558 37.0702 27.7761 38.7612C27.0964 40.4523 26.0874 41.9913 24.8077 43.289C23.5281 44.5868 22.0033 45.6172 20.322 46.3205C18.6406 47.0239 16.8363 47.3861 15.0138 47.3861C13.1913 47.3861 11.3869 47.0239 9.70561 46.3205C8.02428 45.6172 6.49949 44.5868 5.21984 43.289C3.94019 41.9913 2.9312 40.4523 2.25149 38.7612C1.57178 37.0702 1.2349 35.261 1.26044 33.4387V23.8701C1.26044 23.6093 1.36401 23.3593 1.54837 23.1749C1.73273 22.9906 1.98277 22.887 2.2435 22.887H27.7841C28.0448 22.887 28.2948 22.9906 28.4792 23.1749C28.6636 23.3593 28.7671 23.6093 28.7671 23.8701V33.4387Z" fill="#A097D9"/>
    <path d="M15.0151 29.6411C14.2815 29.6438 13.5742 29.9144 13.0262 30.4021C12.4782 30.8897 12.1272 31.5608 12.0393 32.2891C11.9513 33.0174 12.1325 33.7527 12.5488 34.3567C12.965 34.9608 13.5875 35.392 14.2994 35.5692L14.402 35.5962V38.2375C14.4124 38.3934 14.4816 38.5395 14.5957 38.6463C14.7098 38.7531 14.8602 38.8125 15.0164 38.8125C15.1727 38.8125 15.3231 38.7531 15.4372 38.6463C15.5513 38.5395 15.6205 38.3934 15.6308 38.2375V35.5989L15.7335 35.5719C16.448 35.3968 17.0737 34.966 17.4921 34.3609C17.9106 33.7557 18.0928 33.0183 18.0043 32.2879C17.9158 31.5576 17.5628 30.8849 17.012 30.3972C16.4612 29.9095 15.7508 29.6405 15.0151 29.6411ZM15.0151 34.4295C14.6624 34.4295 14.3177 34.3249 14.0245 34.1289C13.7313 33.9329 13.5029 33.6544 13.368 33.3285C13.2332 33.0026 13.1981 32.6441 13.2671 32.2983C13.3361 31.9524 13.5061 31.6348 13.7556 31.3857C14.0052 31.1365 14.3231 30.9669 14.669 30.8985C15.0149 30.83 15.3734 30.8657 15.6991 31.001C16.0247 31.1363 16.3029 31.3652 16.4985 31.6587C16.694 31.9522 16.7981 32.297 16.7975 32.6497C16.7968 33.122 16.6087 33.5747 16.2745 33.9083C15.9403 34.242 15.4874 34.4295 15.0151 34.4295Z" fill="#A097D9"/>
    <path d="M10.4914 42.9914C9.03635 42.294 7.75866 41.2753 6.75469 40.0122C5.75072 38.749 5.04669 37.2744 4.69568 35.6995C4.66607 35.5632 4.5907 35.4412 4.48211 35.3538C4.37352 35.2663 4.23826 35.2187 4.09883 35.2188C4.05439 35.2191 4.01009 35.2236 3.96649 35.2323C3.88752 35.2492 3.8127 35.2816 3.74636 35.3277C3.68002 35.3738 3.62348 35.4325 3.58002 35.5006C3.53656 35.5687 3.50705 35.6447 3.49319 35.7243C3.47933 35.8039 3.48139 35.8854 3.49927 35.9641C3.89167 37.719 4.67719 39.3619 5.79667 40.769C6.91614 42.1762 8.34038 43.311 9.96206 44.0879C10.1088 44.152 10.2745 44.1575 10.4252 44.1033C10.5759 44.049 10.7001 43.9391 10.7723 43.7962C10.8401 43.6502 10.8478 43.4835 10.7937 43.3319C10.7397 43.1803 10.6282 43.0561 10.4833 42.986L10.4914 42.9914Z" fill="#A097D9"/>
    <path d="M26.188 31.2373C26.0254 31.2373 25.8694 31.3019 25.7545 31.4169C25.6395 31.5318 25.5749 31.6878 25.5749 31.8504V33.4384C25.5758 35.353 25.0548 37.2316 24.0679 38.8722C24.0261 38.9412 23.9984 39.0177 23.9862 39.0974C23.9741 39.1771 23.9778 39.2584 23.9971 39.3366C24.0164 39.4149 24.051 39.4886 24.0988 39.5535C24.1466 39.6184 24.2068 39.6732 24.2759 39.7148C24.416 39.7956 24.5819 39.8191 24.739 39.7804C24.8961 39.7416 25.032 39.6436 25.1185 39.5069C26.2209 37.6747 26.8026 35.5766 26.801 33.4384V31.8423C26.7989 31.6811 26.7334 31.5272 26.6186 31.414C26.5039 31.3008 26.3492 31.2373 26.188 31.2373Z" fill="#A097D9"/>
    <path d="M26.1878 26.4492C26.0252 26.4492 25.8692 26.5138 25.7543 26.6288C25.6393 26.7437 25.5747 26.8997 25.5747 27.0623V28.6584C25.5747 28.821 25.6393 28.9769 25.7543 29.0919C25.8692 29.2069 26.0252 29.2715 26.1878 29.2715C26.3504 29.2715 26.5063 29.2069 26.6213 29.0919C26.7362 28.9769 26.8008 28.821 26.8008 28.6584V27.0623C26.8008 26.9818 26.785 26.9021 26.7542 26.8277C26.7234 26.7533 26.6782 26.6857 26.6213 26.6288C26.5643 26.5719 26.4968 26.5267 26.4224 26.4959C26.348 26.4651 26.2683 26.4492 26.1878 26.4492Z" fill="#A097D9"/>
</svg>
