<svg width="24" height="20" viewBox="0 0 24 20" fill="none" xmlns="http://www.w3.org/2000/svg">
    <path d="M22.085 2.2782L24 0.409117V0H17.366L12.638 12.0062L7.259 0H0.303V0.409117L2.54 3.15663C2.758 3.35966 2.872 3.65655 2.843 3.95548V14.7527C2.912 15.1414 2.788 15.5414 2.52 15.824L0 18.9398V19.3438H7.145V18.9347L4.625 15.824C4.352 15.5403 4.223 15.1475 4.278 14.7527V5.41341L10.55 19.3489H11.279L16.672 5.41341V16.5147C16.672 16.8075 16.672 16.8677 16.484 17.0595L14.544 18.9745V19.3846H23.956V18.9755L22.086 17.1074C21.922 16.9809 21.837 16.7687 21.872 16.5626V2.82301C21.837 2.6159 21.921 2.40369 22.085 2.2782Z" fill="black"/>
</svg>
