<svg fill="none" height="36" viewBox="0 0 37 36" width="37" xmlns="http://www.w3.org/2000/svg"><path d="m17.7968 35.7411c-4.5599 0-9.11977-1.7375-12.59058-5.2083-6.94163-6.9416-6.94163-18.2394 0-25.18107 6.94158-6.94163 18.23948-6.94163 25.18108 0 6.9416 6.94167 6.9416 18.23947 0 25.18107-3.4708 3.475-8.0307 5.2083-12.5905 5.2083zm0-35.356584c-4.4976 0-8.99922 1.712544-12.42431 5.137634-6.85018 6.85015-6.85018 17.99835 0 24.84855 6.85021 6.8502 17.99421 6.8502 24.84441 0 6.8501-6.8502 6.8501-17.9984 0-24.84855-3.421-3.42509-7.9226-5.137634-12.4201-5.137634zm0 29.021784c-3.0635 0-5.9399-1.1929-8.10554-3.3586-2.16562-2.1656-3.35858-5.0461-3.35858-8.1054 0-3.0635 1.19296-5.9399 3.35858-8.10553 2.16564-2.16562 5.04204-3.35859 8.10554-3.35859 3.0634 0 5.9398 1.19297 8.1054 3.35859 2.1657 2.16563 3.3586 5.04203 3.3586 8.10553 0 3.0634-1.1929 5.9398-3.3586 8.1054-2.1656 2.1698-5.042 3.3586-8.1054 3.3586zm0-22.68703c-2.997 0-5.8152 1.16802-7.93927 3.28793-2.12406 2.1199-3.28792 4.9381-3.28792 7.9392s1.16802 5.8193 3.28792 7.9392c2.11987 2.1199 4.93807 3.288 7.93927 3.288 3.0011 0 5.8151-1.1681 7.9392-3.288 2.1199-2.1199 3.2879-4.9381 3.2879-7.9392s-1.168-5.8193-3.2879-7.9392c-2.1199-2.11991-4.9423-3.28793-7.9392-3.28793z" fill="#a7874e"/><path d="m25.8191 25.9679c-4.431 4.431-11.6138 4.431-16.04476 0-4.431-4.431-4.431-11.6137 0-16.04475 4.43096-4.431 11.61376-4.431 16.04476 0l4.485-4.48504c-6.9084-6.90837-18.1064-6.90837-25.01064 0-6.90837 6.90839-6.90837 18.10639 0 25.01479 6.90834 6.9084 18.10644 6.9084 25.01064 0z" fill="#a68653"/><path d="m18.9336 18.9145-.1661.169 16.9221 16.6374.1662-.169z" fill="#a7874e"/><path d="m35.8587.00018683-17.097 16.63651317.1653.1698 17.0969-16.636505z" fill="#a7874e"/><path d="m19.7587 19.908c-1.0849 1.0849-2.8432 1.0849-3.9239 0-1.0849-1.0849-1.0849-2.8432 0-3.9239 1.0849-1.0849 2.8431-1.0849 3.9239 0 1.0849 1.0807 1.0849 2.839 0 3.9239z" fill="#a68653"/></svg>