<svg width="25" height="20" viewBox="0 0 25 20" fill="none" xmlns="http://www.w3.org/2000/svg">
    <path d="M25 2.3698C24.0622 2.77728 23.07 3.04573 22.0547 3.16668C23.1217 2.54187 23.9241 1.54926 24.3115 0.375009C23.3027 0.9649 22.2008 1.3788 21.0531 1.59897C20.5698 1.09247 19.9886 0.689542 19.3448 0.414668C18.7009 0.139793 18.0079 -0.00128507 17.3078 8.82001e-06C14.4734 8.82001e-06 12.1797 2.26043 12.1797 5.04688C12.1777 5.43447 12.2221 5.8209 12.312 6.19793C10.2795 6.10265 8.28934 5.58417 6.46874 4.67566C4.64815 3.76716 3.03723 2.48863 1.73906 0.921884C1.28363 1.68965 1.04278 2.56566 1.04167 3.45834C1.04167 5.20834 1.95469 6.75522 3.33333 7.66147C2.51652 7.64208 1.71645 7.4259 1.00104 7.03126V7.09376C1.00104 9.54168 2.77188 11.5781 5.11563 12.0417C4.67489 12.1592 4.22071 12.2187 3.76458 12.2188C3.44093 12.2193 3.118 12.1879 2.80052 12.125C3.45208 14.1302 5.34844 15.5886 7.59479 15.6302C5.76947 17.0369 3.52845 17.7973 1.22396 17.7917C0.814905 17.7911 0.406232 17.7667 0 17.7188C2.34436 19.2157 5.0695 20.0076 7.85104 20C17.2969 20 22.4573 12.3073 22.4573 5.63543C22.4573 5.41668 22.4516 5.19793 22.4411 4.98438C23.4428 4.27191 24.3093 3.38653 25 2.3698Z" fill="black"/>
</svg>
