<svg width="44" height="42" viewBox="0 0 44 42" fill="none" xmlns="http://www.w3.org/2000/svg">
    <path d="M6.89955 41.2934C4.93607 40.4624 3.32616 38.9691 2.35003 37.0736C1.3739 35.178 1.09336 33.0002 1.55723 30.9191C2.0211 28.8381 3.20001 26.9856 4.88878 25.684C6.57755 24.3825 8.66924 23.7143 10.7998 23.7958L11.6521 21.7877C11.6722 21.7378 11.702 21.6924 11.7398 21.6541C11.7775 21.6158 11.8225 21.5854 11.8721 21.5647C11.9218 21.5439 11.975 21.5332 12.0288 21.5332C12.0825 21.5332 12.1358 21.5439 12.1854 21.5646L17.3597 23.749C17.4599 23.791 17.5394 23.8707 17.5812 23.9709C17.623 24.0712 17.6236 24.1838 17.5828 24.2845L16.7305 26.2926C18.2726 27.763 19.2507 29.7273 19.4947 31.8441C19.7387 33.9608 19.2333 36.0961 18.0662 37.8788C16.8991 39.6615 15.1442 40.9789 13.1066 41.6019C11.0689 42.2249 8.8774 42.1142 6.91294 41.289L6.89955 41.2934ZM12.2546 22.4727L11.4513 24.376C11.418 24.4551 11.3606 24.5218 11.2874 24.5666C11.2141 24.6114 11.1287 24.6322 11.043 24.6259C9.08286 24.4859 7.13666 25.0463 5.55111 26.2073C3.96557 27.3682 2.84364 29.0544 2.38519 30.9653C1.92673 32.8762 2.16153 34.8878 3.04775 36.6418C3.93397 38.3958 5.41405 39.7782 7.22435 40.5428C9.03465 41.3074 11.0576 41.4045 12.9328 40.8169C14.8081 40.2293 16.4138 38.995 17.464 37.334C18.5142 35.673 18.9406 33.6932 18.6674 31.7471C18.3941 29.801 17.4389 28.0152 15.9719 26.7076C15.9085 26.6507 15.8645 26.5753 15.8461 26.4921C15.8277 26.4088 15.8358 26.3219 15.8692 26.2435L16.6725 24.3403L12.2546 22.4727Z" fill="#9C93D4"/>
    <path d="M14.4547 23.4052C14.4048 23.3851 14.3594 23.3553 14.3211 23.3176C14.2828 23.2798 14.2524 23.2348 14.2316 23.1852C14.2109 23.1356 14.2002 23.0823 14.2002 23.0286C14.2001 22.9748 14.2108 22.9215 14.2315 22.8719L15.6953 19.409C15.852 19.0094 16.0871 18.6452 16.3868 18.3379C16.6865 18.0306 17.0448 17.7865 17.4403 17.6199C17.8359 17.4532 18.2608 17.3675 18.6901 17.3677C19.1193 17.3679 19.5442 17.454 19.9396 17.621C20.335 17.7881 20.693 18.0326 20.9924 18.3401C21.2918 18.6477 21.5266 19.0121 21.6829 19.4118C21.8393 19.8116 21.914 20.2386 21.9027 20.6677C21.8913 21.0968 21.7942 21.5193 21.617 21.9102C21.6176 21.9177 21.6176 21.9251 21.617 21.9325C21.617 21.9325 21.2466 22.7179 21.501 23.4163C21.5868 23.6204 21.7134 23.8049 21.873 23.9583C22.0326 24.1118 22.2219 24.2311 22.4292 24.3088C22.5277 24.3529 22.6047 24.4343 22.6432 24.5352C22.6817 24.636 22.6786 24.748 22.6345 24.8466C22.5904 24.9451 22.509 25.0221 22.4081 25.0606C22.3073 25.0991 22.1953 25.0959 22.0968 25.0519C21.7871 24.9308 21.5061 24.7467 21.2714 24.5112C21.0367 24.2758 20.8535 23.9941 20.7335 23.6841C20.3809 22.7068 20.8182 21.7116 20.8785 21.5822C21.1057 20.9992 21.0963 20.3506 20.8523 19.7744C20.6083 19.1982 20.149 18.74 19.5723 18.4974C18.9955 18.2549 18.3468 18.247 17.7643 18.4756C17.1819 18.7043 16.7117 19.1512 16.4539 19.7214L14.9902 23.1843C14.9702 23.2344 14.9403 23.2801 14.9023 23.3185C14.8643 23.3569 14.819 23.3873 14.7691 23.4079C14.7192 23.4285 14.6656 23.4389 14.6116 23.4384C14.5576 23.4379 14.5042 23.4266 14.4547 23.4052Z" fill="#9C93D4"/>
    <path d="M24.0848 25.8974L23.1789 25.5158C23.1295 25.4949 23.0847 25.4644 23.0471 25.4262C23.0095 25.3879 22.9798 25.3426 22.9597 25.2929C22.9396 25.2432 22.9295 25.19 22.93 25.1363C22.9305 25.0827 22.9415 25.0297 22.9624 24.9803C22.9834 24.931 23.0139 24.8862 23.0521 24.8486C23.0904 24.811 23.1356 24.7813 23.1854 24.7612C23.2351 24.7411 23.2883 24.731 23.3419 24.7315C23.3955 24.7319 23.4486 24.7429 23.4979 24.7639L24.4016 25.1477C24.501 25.1897 24.5797 25.2695 24.6203 25.3695C24.6608 25.4695 24.66 25.5815 24.618 25.6809C24.576 25.7804 24.4962 25.859 24.3962 25.8996C24.2962 25.9402 24.1842 25.9394 24.0848 25.8974Z" fill="#9C93D4"/>
    <path d="M23.0695 24.1999C22.9847 24.163 22.9142 24.0996 22.8686 24.0192C22.8431 23.972 22.8272 23.9202 22.8217 23.8669C22.8162 23.8136 22.8213 23.7597 22.8366 23.7083C22.8519 23.6569 22.8772 23.609 22.9111 23.5674C22.9449 23.5258 22.9866 23.4913 23.0338 23.4658L23.8973 22.9972C23.9445 22.9672 23.9975 22.9472 24.0528 22.9385C24.1081 22.9299 24.1646 22.9326 24.2188 22.9467C24.273 22.9608 24.3237 22.9859 24.3678 23.0204C24.4119 23.0549 24.4485 23.0981 24.4751 23.1473C24.5018 23.1966 24.5181 23.2508 24.523 23.3065C24.5278 23.3623 24.5211 23.4185 24.5033 23.4716C24.4856 23.5247 24.457 23.5736 24.4196 23.6152C24.3821 23.6568 24.3364 23.6903 24.2855 23.7135L23.422 24.182C23.3685 24.2117 23.3089 24.2287 23.2478 24.2318C23.1867 24.2349 23.1257 24.224 23.0695 24.1999Z" fill="#9C93D4"/>
    <path d="M22.6857 26.8814C22.6003 26.8466 22.5299 26.7825 22.4872 26.7007L22.0186 25.8372C21.9886 25.7899 21.9686 25.737 21.9599 25.6817C21.9512 25.6263 21.954 25.5698 21.9681 25.5156C21.9821 25.4614 22.0072 25.4107 22.0417 25.3666C22.0762 25.3225 22.1195 25.286 22.1687 25.2593C22.2179 25.2326 22.2721 25.2163 22.3279 25.2115C22.3837 25.2066 22.4399 25.2133 22.493 25.2311C22.5461 25.2489 22.5949 25.2774 22.6366 25.3149C22.6782 25.3524 22.7116 25.398 22.7348 25.449L23.2034 26.3125C23.2445 26.3867 23.2614 26.472 23.2515 26.5563C23.2417 26.6406 23.2057 26.7197 23.1485 26.7825C23.0914 26.8453 23.0161 26.8886 22.933 26.9064C22.85 26.9241 22.7635 26.9154 22.6857 26.8814Z" fill="#9C93D4"/>
    <path d="M12.8436 38.5356C12.8195 38.4879 12.805 38.4359 12.801 38.3825C12.797 38.3292 12.8036 38.2755 12.8204 38.2247C12.8372 38.1739 12.8638 38.127 12.8988 38.0865C12.9338 38.046 12.9765 38.0129 13.0244 37.989C14.4276 37.2784 15.4917 36.0402 15.9832 34.546C16.4747 33.0519 16.3535 31.4238 15.6461 30.0189C15.6181 29.9708 15.6003 29.9175 15.5936 29.8623C15.587 29.8071 15.5917 29.7511 15.6075 29.6977C15.6233 29.6444 15.6498 29.5948 15.6854 29.5521C15.721 29.5094 15.765 29.4744 15.8147 29.4493C15.8643 29.4242 15.9185 29.4094 15.974 29.406C16.0296 29.4026 16.0852 29.4106 16.1375 29.4295C16.1899 29.4483 16.2378 29.4777 16.2784 29.5157C16.3189 29.5538 16.3513 29.5997 16.3735 29.6507C17.1786 31.2488 17.3166 33.101 16.7573 34.8007C16.198 36.5004 14.987 37.9087 13.3903 38.7164C13.2938 38.7646 13.1821 38.7726 13.0797 38.7388C12.9773 38.7049 12.8924 38.6319 12.8436 38.5356Z" fill="#9C93D4"/>
    <path d="M43.6016 20.8971L42.7091 16.9835C42.5213 16.1897 42.0502 15.4919 41.3842 15.021C40.7182 14.5502 39.9031 14.3387 39.0922 14.4264H38.9918L38.0413 10.2897C37.8059 9.31899 37.1954 8.48115 36.3435 7.95965C35.4916 7.43815 34.4678 7.27549 33.4962 7.50729L32.7934 7.67018L31.6242 2.62529C31.4237 1.75246 30.8852 0.994764 30.1269 0.518351C29.3686 0.0419387 28.4523 -0.114307 27.5789 0.0838771C27.2667 0.155884 26.9663 0.271562 26.6864 0.427492L0.31732 15.0668V15.0958L0.263769 15.1204C0.169534 15.1705 0.0939307 15.2497 0.0481269 15.3461C0.00232297 15.4425 -0.0112527 15.5511 0.00940512 15.6559L2.76278 27.6154L3.61067 27.0331L1.06033 15.9504L1.16966 15.9259L33.6993 8.44219C34.4269 8.27056 35.1928 8.389 35.8346 8.77242C36.151 8.96096 36.4259 9.21154 36.643 9.5091C36.86 9.80665 37.0146 10.145 37.0975 10.5039L38.0413 14.6384L32.7577 15.8545C31.898 16.0549 31.1524 16.5869 30.6831 17.3345C30.2138 18.0821 30.0588 18.9849 30.252 19.8462L31.1445 23.7598C31.3502 24.6224 31.8862 25.3699 32.6373 25.8414C33.3883 26.3129 34.2944 26.4708 35.1607 26.2811L40.4421 25.0651L41.3882 29.1773C41.5484 29.9086 41.4122 30.6736 41.0095 31.3047C40.6067 31.9358 39.9702 32.3816 39.2395 32.5443L17.6297 37.5133L17.8528 38.446L39.4671 33.4725C40.4435 33.2494 41.2921 32.649 41.8276 31.8025C42.3631 30.9561 42.542 29.9321 42.3253 28.9542L41.3703 24.8085L41.4641 24.775C42.2316 24.4999 42.8722 23.9541 43.2658 23.2401C43.6594 22.5261 43.7788 21.6929 43.6016 20.8971ZM3.63298 14.3751L27.1572 1.28653C27.4837 1.10146 27.849 0.995364 28.2239 0.976737C28.5987 0.958109 28.9727 1.02746 29.316 1.17925C29.6593 1.33104 29.9622 1.56105 30.2007 1.85089C30.4392 2.14072 30.6065 2.48234 30.6893 2.84841L31.8495 7.88438L3.63298 14.3751ZM40.8951 23.9696L34.9265 25.344C34.7507 25.3839 34.5711 25.4041 34.391 25.4043C33.8572 25.4024 33.3398 25.2202 32.9226 24.8873C32.5054 24.5543 32.213 24.0902 32.0928 23.5702L31.1824 19.6141C31.1135 19.311 31.105 18.9972 31.1574 18.6908C31.2098 18.3844 31.3221 18.0913 31.4879 17.8283C31.6537 17.5654 31.8697 17.3376 32.1236 17.1582C32.3774 16.9788 32.6642 16.8512 32.9674 16.7827L38.9338 15.4171C39.2371 15.3472 39.5513 15.338 39.8582 15.39C40.1651 15.442 40.4586 15.5542 40.722 15.7201C40.9854 15.886 41.2133 16.1024 41.3928 16.3567C41.5722 16.6111 41.6996 16.8984 41.7675 17.2021L42.6756 21.1448C42.8152 21.7557 42.7069 22.3971 42.3744 22.9283C42.0419 23.4594 41.5123 23.8371 40.9018 23.9785L40.8951 23.9696Z" fill="#9C93D4"/>
    <path d="M36.3657 22.4704C36.6146 22.4194 36.8508 22.3191 37.0604 22.1754C37.2699 22.0318 37.4486 21.8476 37.586 21.6339C37.7234 21.4201 37.8166 21.1811 37.8602 20.9308C37.9038 20.6804 37.8969 20.4239 37.8399 20.1763C37.7829 19.9287 37.677 19.695 37.5283 19.489C37.3797 19.2829 37.1913 19.1086 36.9743 18.9764C36.7574 18.8443 36.5161 18.7568 36.2648 18.7192C36.0136 18.6816 35.7573 18.6947 35.5111 18.7576L34.9756 18.8803C34.7267 18.9313 34.4905 19.0316 34.281 19.1753C34.0714 19.319 33.8927 19.5031 33.7553 19.7168C33.618 19.9306 33.5247 20.1696 33.4811 20.42C33.4375 20.6703 33.4444 20.9268 33.5014 21.1744C33.5584 21.422 33.6643 21.6557 33.813 21.8618C33.9616 22.0678 34.15 22.2421 34.367 22.3743C34.584 22.5065 34.8252 22.5939 35.0765 22.6315C35.3278 22.6691 35.584 22.656 35.8302 22.5931L36.3657 22.4704ZM35.4018 21.685C35.1692 21.6844 34.9449 21.5984 34.7716 21.4432C34.5983 21.288 34.4881 21.0746 34.4619 20.8434C34.4357 20.6123 34.4954 20.3796 34.6296 20.1896C34.7639 19.9996 34.9632 19.8655 35.1898 19.813L35.7253 19.6903C35.8483 19.6576 35.9766 19.6501 36.1025 19.6681C36.2284 19.6861 36.3495 19.7293 36.4584 19.795C36.5673 19.8607 36.6619 19.9477 36.7365 20.0507C36.8111 20.1538 36.8642 20.2708 36.8926 20.3948C36.9211 20.5188 36.9243 20.6472 36.9021 20.7725C36.8799 20.8977 36.8327 21.0172 36.7633 21.1239C36.694 21.2305 36.6038 21.3221 36.4984 21.3932C36.3929 21.4643 36.2741 21.5135 36.1493 21.5377L35.616 21.6605C35.5457 21.6763 35.4739 21.6845 35.4018 21.685Z" fill="#9C93D4"/>
    <path d="M5.15261 23.1909L3.9031 17.798C3.89387 17.758 3.87686 17.7202 3.85302 17.6867C3.82919 17.6533 3.79901 17.6249 3.7642 17.6032C3.72939 17.5814 3.69064 17.5667 3.65016 17.56C3.60967 17.5532 3.56825 17.5544 3.52825 17.5637C3.48826 17.5729 3.45047 17.5899 3.41705 17.6137C3.38363 17.6376 3.35523 17.6678 3.33348 17.7026C3.31172 17.7374 3.29704 17.7761 3.29026 17.8166C3.28348 17.8571 3.28474 17.8985 3.29397 17.9385L4.53232 23.3226C4.54789 23.3917 4.58632 23.4535 4.64139 23.498C4.69646 23.5426 4.76495 23.5672 4.83577 23.568C4.85952 23.5703 4.88343 23.5703 4.90717 23.568C4.94738 23.559 4.98543 23.5422 5.01911 23.5185C5.05279 23.4948 5.08145 23.4646 5.10343 23.4298C5.12541 23.3949 5.14029 23.3561 5.1472 23.3155C5.15411 23.2749 5.15291 23.2333 5.14369 23.1931L5.15261 23.1909Z" fill="#9C93D4"/>
</svg>
